<?xml version="1.0" standalone="no"?>
<!DOCTYPE svg PUBLIC "-//W3C//DTD SVG 20010904//EN"
 "http://www.w3.org/TR/2001/REC-SVG-20010904/DTD/svg10.dtd">
<svg version="1.0" xmlns="http://www.w3.org/2000/svg"
 width="700.000000pt" height="700.000000pt" viewBox="0 0 700.000000 700.000000"
 preserveAspectRatio="xMidYMid meet">
<metadata>
Created by potrace 1.11, written by Peter Selinger 2001-2013
</metadata>
<g transform="translate(0.000000,700.000000) scale(0.100000,-0.100000)"
fill="#000000" stroke="none">
<path d="M1185 6993 c-303 -39 -573 -171 -791 -388 -190 -189 -310 -412 -370
-685 -18 -82 -19 -181 -19 -2415 0 -2537 -4 -2371 57 -2565 109 -346 370 -650
691 -804 109 -53 273 -104 384 -121 148 -22 4578 -22 4726 0 111 17 275 68
384 121 321 154 582 458 691 804 61 194 57 28 57 2565 0 2216 -1 2334 -18
2413 -61 274 -181 497 -372 687 -187 188 -401 305 -675 371 -71 17 -193 18
-2395 20 -1276 1 -2333 -1 -2350 -3z m4727 -330 c376 -107 644 -375 751 -751
l22 -77 3 -2303 c2 -2226 2 -2306 -17 -2395 -42 -208 -129 -367 -285 -523
-155 -155 -315 -242 -521 -285 -86 -18 -183 -19 -2365 -19 -2182 0 -2279 1
-2365 19 -206 43 -366 130 -521 285 -155 155 -242 315 -285 521 -18 86 -19
183 -19 2365 0 2182 1 2279 19 2365 84 404 398 720 801 806 81 17 198 18 2395
16 l2310 -2 77 -22z"/>
<path d="M4941 5919 c-341 -44 -622 -295 -712 -634 -30 -113 -30 -278 0 -400
135 -555 766 -817 1258 -523 135 80 278 248 341 399 68 163 80 381 32 549 -95
330 -374 567 -716 609 -99 12 -111 12 -203 0z"/>
<path d="M1780 2811 c-173 -38 -318 -119 -439 -247 -309 -324 -308 -833 2
-1161 177 -187 451 -287 704 -255 189 24 346 98 480 226 259 245 337 610 202
937 -74 181 -224 341 -406 432 -151 77 -376 105 -543 68z"/>
</g>
</svg>
