<?xml version="1.0" standalone="no"?>
<!DOCTYPE svg PUBLIC "-//W3C//DTD SVG 20010904//EN"
 "http://www.w3.org/TR/2001/REC-SVG-20010904/DTD/svg10.dtd">
<svg version="1.0" xmlns="http://www.w3.org/2000/svg"
 width="700.000000pt" height="700.000000pt" viewBox="0 0 700.000000 700.000000"
 preserveAspectRatio="xMidYMid meet">
<metadata>
Created by potrace 1.11, written by Peter Selinger 2001-2013
</metadata>
<g transform="translate(0.000000,700.000000) scale(0.100000,-0.100000)"
fill="#000000" stroke="none">
<path d="M3278 6995 c-1 -1 -41 -5 -88 -9 -87 -7 -105 -9 -225 -27 -116 -18
-123 -19 -192 -35 -184 -42 -249 -59 -373 -101 -257 -85 -536 -216 -755 -354
-696 -437 -1220 -1109 -1475 -1889 -28 -87 -75 -256 -85 -311 -3 -13 -11 -58
-20 -99 -29 -147 -36 -200 -52 -370 -15 -164 -8 -592 12 -711 2 -13 6 -46 9
-74 9 -78 23 -156 51 -285 70 -325 244 -759 410 -1023 30 -49 55 -92 55 -97 0
-4 3 -10 8 -12 4 -2 33 -41 64 -88 169 -254 433 -535 708 -755 92 -74 370
-265 386 -265 4 0 15 -6 23 -14 29 -25 304 -161 431 -213 269 -110 577 -194
835 -228 22 -2 56 -7 75 -10 186 -26 698 -27 838 0 16 3 104 15 147 20 321 41
829 220 1153 406 47 27 87 49 89 49 2 0 9 5 16 10 7 6 62 43 122 83 253 168
492 376 678 592 33 39 63 72 67 75 17 13 181 236 245 335 219 336 406 779 481
1140 16 79 54 301 59 350 4 33 9 71 11 85 9 46 11 524 4 605 -12 128 -21 202
-25 227 -3 13 -8 43 -11 68 -9 71 -71 338 -95 415 -12 39 -24 77 -25 86 -6 30
-97 264 -141 364 -213 477 -545 913 -963 1263 -66 56 -304 230 -351 257 -235
137 -500 275 -527 275 -4 0 -26 8 -48 19 -98 47 -408 141 -579 176 -44 9 -89
19 -100 21 -11 2 -38 6 -60 9 -22 3 -51 7 -65 10 -13 2 -52 7 -86 11 -33 3
-74 8 -90 10 -32 5 -540 14 -546 9z m-111 -1840 c39 -7 88 -46 110 -89 22 -42
22 -270 0 -313 -39 -73 -87 -93 -229 -93 l-98 0 -1 -382 c-1 -211 -2 -410 -4
-443 -2 -74 -16 -297 -20 -345 -2 -19 -6 -73 -10 -120 -3 -47 -8 -98 -10 -115
-5 -33 -22 -170 -30 -250 -3 -27 -10 -77 -15 -110 -5 -33 -12 -78 -15 -100 -4
-22 -17 -103 -31 -180 -25 -144 -26 -152 -39 -220 -4 -22 -9 -51 -12 -65 -49
-270 -117 -613 -127 -640 -33 -96 -109 -195 -173 -225 -41 -20 -124 -23 -164
-7 -90 36 -193 191 -213 317 -2 17 -16 93 -30 170 -14 77 -27 154 -30 170 -3
17 -19 104 -35 195 -17 91 -33 181 -36 200 -3 19 -7 46 -10 60 -3 14 -7 41
-10 60 -3 19 -10 58 -15 85 -5 28 -14 86 -20 130 -6 44 -13 91 -15 105 -2 14
-7 54 -10 90 -4 36 -8 72 -10 80 -2 13 -12 109 -21 195 -3 40 -15 186 -20 260
-10 152 -17 429 -18 743 l-1 342 -75 1 c-94 1 -102 2 -144 28 -57 35 -75 87
-74 215 0 123 8 160 40 197 45 51 58 54 298 59 288 6 1275 3 1317 -5z m2203
-18 c33 -16 51 -35 68 -67 20 -40 22 -56 19 -170 -2 -110 -6 -131 -25 -162
-36 -57 -90 -78 -203 -78 l-94 0 -1 -333 c0 -303 -8 -624 -18 -737 -2 -25 -7
-86 -11 -137 -3 -51 -7 -100 -9 -110 -2 -10 -7 -54 -10 -98 -4 -44 -9 -91 -11
-105 -3 -14 -7 -47 -9 -74 -6 -50 -10 -81 -31 -226 -19 -129 -22 -149 -59
-345 -9 -49 -18 -102 -22 -125 -3 -14 -18 -95 -34 -180 -16 -85 -32 -171 -35
-190 -3 -19 -10 -54 -16 -78 -5 -23 -12 -59 -15 -80 -22 -147 -64 -246 -136
-321 -56 -57 -92 -74 -158 -74 -67 0 -109 20 -168 82 -73 76 -110 166 -137
331 -3 19 -10 55 -15 80 -5 25 -12 61 -15 80 -5 34 -19 118 -30 173 -2 15 -9
53 -15 85 -6 31 -12 68 -15 82 -5 26 -32 182 -41 235 -3 17 -7 37 -9 45 -2 8
-7 35 -10 60 -3 25 -8 56 -10 70 -3 14 -7 43 -10 65 -3 22 -7 50 -9 62 -3 12
-7 46 -10 75 -4 29 -8 69 -10 88 -3 19 -7 58 -10 85 -3 28 -8 69 -11 91 -2 23
-7 77 -10 120 -3 44 -8 90 -10 104 -4 27 -16 245 -21 380 -1 47 -3 250 -3 453
l-1 367 -83 0 c-45 0 -96 4 -114 9 -43 13 -90 57 -104 99 -13 40 -16 206 -5
264 7 40 44 90 80 111 22 13 765 24 1296 20 254 -2 266 -3 310 -26z"/>
</g>
</svg>
