<?xml version="1.0" standalone="no"?>
<!DOCTYPE svg PUBLIC "-//W3C//DTD SVG 20010904//EN" "http://www.w3.org/TR/2001/REC-SVG-20010904/DTD/svg10.dtd">
<svg version="1.0" xmlns="http://www.w3.org/2000/svg" width="700.000000pt" height="700.000000pt" viewBox="0 0 700.000000 700.000000" preserveAspectRatio="xMidYMid meet">
  <metadata>
Created by potrace 1.11, written by Peter Selinger 2001-2013
</metadata>
  <g transform="translate(0.000000,700.000000) scale(0.100000,-0.100000)" fill="#000000" stroke="none">
    <path d="M1209 6995 c-3 -2 -28 -7 -58 -10 -146 -17 -348 -88 -491 -174 -287
-171 -508 -450 -599 -756 -60 -203 -55 13 -58 -2525 -1 -1482 1 -2333 8 -2365
5 -27 15 -75 21 -105 6 -30 12 -59 14 -65 7 -38 63 -183 94 -245 70 -141 148
-249 261 -361 185 -184 386 -292 674 -362 l90 -22 2330 0 c2234 0 2333 1 2415
19 566 123 971 538 1070 1096 18 100 18 206 19 2375 0 2487 3 2352 -59 2552
-133 429 -447 748 -876 888 -205 66 -67 63 -2575 64 -1252 0 -2278 -1 -2280
-4z" />
  </g>
</svg>