<svg width="172" height="172" viewBox="0 0 172 172" fill="none" xmlns="http://www.w3.org/2000/svg">
  <circle cx="86" cy="86" r="86" fill="#C7D2FE" />
  <path d="M123.5 48.3333L115.167 56.6667M115.167 56.6667L127.667 69.1667L113.083 83.75L100.583 71.25M115.167 56.6667L100.583 71.25M83.4585 88.375C85.6099 90.4978 87.3202 93.0252 88.4908 95.8116C89.6614 98.5981 90.2693 101.589 90.2794 104.611C90.2896 107.633 89.7017 110.628 88.5498 113.422C87.3979 116.216 85.7046 118.755 83.5674 120.892C81.4303 123.029 78.8915 124.723 76.0973 125.875C73.303 127.027 70.3085 127.614 67.2861 127.604C64.2638 127.594 61.2733 126.986 58.4868 125.816C55.7003 124.645 53.1729 122.935 51.0502 120.783C46.8757 116.461 44.5658 110.672 44.6181 104.664C44.6703 98.6551 47.0804 92.9073 51.3293 88.6583C55.5783 84.4094 61.326 81.9993 67.3347 81.9471C73.3434 81.8948 79.1322 84.2047 83.4543 88.3792L83.4585 88.375ZM83.4585 88.375L100.583 71.25" stroke="#4338CA" stroke-width="10" stroke-linecap="round" stroke-linejoin="round" />
</svg>