<svg width="211" height="176" viewBox="0 0 211 176" fill="none" xmlns="http://www.w3.org/2000/svg">
  <path d="M144.893 67.527V37.6797H128.484H112.47V68.3913C112.47 81.4482 113.616 94.4799 115.897 107.336L120.455 133.035C120.98 135.995 122.476 138.701 124.7 140.723C126.938 142.757 130.375 142.716 132.557 140.621C134.603 138.657 135.982 136.1 136.499 133.311L141.16 108.159C143.643 94.7576 144.893 81.1566 144.893 67.527Z" fill="#4FD1C5" />
  <path d="M104.156 40C104.156 37.7909 105.947 36 108.156 36H150.553C152.762 36 154.553 37.7909 154.553 40V46.2776C154.553 48.4867 152.762 50.2776 150.553 50.2776H108.156C105.947 50.2776 104.156 48.4867 104.156 46.2776V40Z" fill="#2C7A7B" />
  <path d="M201.855 67.527V37.6797H185.447H169.432V68.3913C169.432 81.4482 170.579 94.4799 172.859 107.336L177.418 133.035C177.942 135.995 179.438 138.701 181.663 140.723C183.901 142.757 187.338 142.716 189.52 140.621C191.566 138.657 192.945 136.1 193.461 133.311L198.122 108.159C200.606 94.7576 201.855 81.1566 201.855 67.527Z" fill="#4FD1C5" />
  <path d="M160.603 40C160.603 37.7909 162.394 36 164.603 36H207C209.209 36 211 37.7909 211 40V46.2776C211 48.4867 209.209 50.2776 207 50.2776H164.603C162.394 50.2776 160.603 48.4867 160.603 46.2776V40Z" fill="#2C7A7B" />
  <path d="M48.999 99.9619H31.4941V139H9.52148V32.3594H49.1455C61.7432 32.3594 71.46 35.167 78.2959 40.7822C85.1318 46.3975 88.5498 54.332 88.5498 64.5859C88.5498 71.8613 86.9629 77.9404 83.7891 82.8232C80.6641 87.6572 75.9033 91.5146 69.5068 94.3955L92.5781 137.975V139H68.9941L48.999 99.9619ZM31.4941 82.1641H49.2188C54.7363 82.1641 59.0088 80.7725 62.0361 77.9893C65.0635 75.1572 66.5771 71.2754 66.5771 66.3438C66.5771 61.3145 65.1367 57.3594 62.2559 54.4785C59.4238 51.5977 55.0537 50.1572 49.1455 50.1572H31.4941V82.1641Z" fill="black" />
</svg>