<svg width="172" height="172" viewBox="0 0 172 172" fill="none" xmlns="http://www.w3.org/2000/svg">
  <circle cx="86" cy="86" r="86" fill="#C3DAFE" />
  <path d="M73.9072 71.724V44.1339H58.0066H42.4875V72.5966C42.4875 85.7845 43.6574 98.9464 45.9834 111.928L50.2149 135.543C50.7304 138.421 52.1947 141.048 54.3676 143.003C56.5265 144.946 59.8215 144.906 61.9267 142.905C63.9264 141.005 65.2761 138.523 65.7836 135.812L70.0994 112.758C72.6325 99.2265 73.9072 85.49 73.9072 71.724Z" fill="#7F9CF5" />
  <path d="M34.2571 46.2885C34.2571 44.0794 36.0479 42.2885 38.2571 42.2885H79.3571C81.5662 42.2885 83.3571 44.0794 83.3571 46.2885V57.259C83.3571 59.4681 81.5662 61.259 79.3571 61.259H38.2571C36.0479 61.259 34.2571 59.4681 34.2571 57.259V46.2885Z" fill="#4C51BF" />
  <path d="M128.274 71.724V44.1339H112.374H96.8545V72.5966C96.8545 85.7845 98.0244 98.9464 100.35 111.928L104.582 135.543C105.097 138.421 106.562 141.048 108.735 143.003C110.893 144.946 114.188 144.906 116.294 142.905C118.293 141.005 119.643 138.523 120.151 135.812L124.466 112.758C126.999 99.2265 128.274 85.49 128.274 71.724Z" fill="#7F9CF5" />
  <path d="M87.8999 46.2885C87.8999 44.0794 89.6908 42.2885 91.8999 42.2885H133C135.209 42.2885 137 44.0794 137 46.2885V57.259C137 59.4681 135.209 61.259 133 61.259H91.8999C89.6908 61.259 87.8999 59.4681 87.8999 57.259V46.2885Z" fill="#4C51BF" />
</svg>