<svg width="172" height="172" viewBox="0 0 172 172" fill="none" xmlns="http://www.w3.org/2000/svg">
  <circle cx="86" cy="86" r="86" fill="#B2F5EA" />
  <path d="M72.5316 69.2286V46.6536H58.2825H44.3755V70.1012C44.3755 83.2891 45.5454 96.451 47.8713 109.432L51.3002 128.568C51.7622 131.147 53.0744 133.502 55.0216 135.254C56.9562 136.994 59.909 136.958 61.7955 135.166C63.5875 133.463 64.797 131.239 65.2518 128.809L68.7238 110.262C71.2569 96.7311 72.5316 82.9947 72.5316 69.2286Z" fill="#4FD1C5" />
  <path d="M37.156 49.2098C37.156 47.0006 38.9469 45.2097 41.156 45.2097H76.9208C79.1299 45.2097 80.9208 47.0006 80.9208 49.2097V53.4829C80.9208 55.6921 79.1299 57.4829 76.9208 57.4829H41.156C38.9469 57.4829 37.156 55.6921 37.156 53.4829V49.2098Z" fill="#2C7A7B" />
  <path d="M126.181 69.2286V46.6536H111.931H98.0244V70.1012C98.0244 83.2891 99.1943 96.451 101.52 109.432L104.949 128.568C105.411 131.147 106.723 133.502 108.671 135.254C110.605 136.994 113.558 136.958 115.444 135.166C117.236 133.463 118.446 131.239 118.901 128.809L122.373 110.262C124.906 96.7311 126.181 82.9947 126.181 69.2286Z" fill="#4FD1C5" />
  <path d="M90.3572 49.2098C90.3572 47.0006 92.148 45.2097 94.3572 45.2097H130.122C132.331 45.2097 134.122 47.0006 134.122 49.2097V53.4829C134.122 55.6921 132.331 57.4829 130.122 57.4829H94.3572C92.148 57.4829 90.3572 55.6921 90.3572 53.4829V49.2098Z" fill="#2C7A7B" />
</svg>