<svg width="172" height="172" viewBox="0 0 172 172" fill="none" xmlns="http://www.w3.org/2000/svg">
  <circle cx="86" cy="86" r="86" fill="#C3DAFE" />
  <path d="M105.177 69.9665V30.7725H85.4552H66.2065V70.8391C66.2065 84.027 67.3764 97.1889 69.7024 110.17L75.7909 144.15C76.4304 147.719 78.2466 150.978 80.9417 153.403C83.6194 155.812 87.7063 155.763 90.3175 153.282C92.7978 150.925 94.4717 147.846 95.1013 144.483L101.369 111C103.902 97.469 105.177 83.7326 105.177 69.9665Z" fill="#7F9CF5" />
  <path d="M55.1001 32.4837C55.1001 30.2746 56.891 28.4837 59.1001 28.4837H112C114.209 28.4837 116 30.2746 116 32.4837V48.0133C116 50.2224 114.209 52.0133 112 52.0133H59.1001C56.891 52.0133 55.1001 50.2224 55.1001 48.0133V32.4837Z" fill="#4C51BF" />
</svg>