<svg width="172" height="172" viewBox="0 0 172 172" fill="none" xmlns="http://www.w3.org/2000/svg">
<circle cx="86" cy="86" r="86" fill="#C7D2FE"/>
<path d="M119.667 123V114.667C119.667 110.246 117.911 106.007 114.785 102.882C111.659 99.756 107.42 98 103 98H69.6667C65.2464 98 61.0072 99.756 57.8816 102.882C54.7559 106.007 53 110.246 53 114.667V123" stroke="#4338CA" stroke-width="10" stroke-linecap="round" stroke-linejoin="round"/>
<path d="M86.3334 81.3333C95.5382 81.3333 103 73.8714 103 64.6667C103 55.4619 95.5382 48 86.3334 48C77.1287 48 69.6667 55.4619 69.6667 64.6667C69.6667 73.8714 77.1287 81.3333 86.3334 81.3333Z" stroke="#4338CA" stroke-width="10" stroke-linecap="round" stroke-linejoin="round"/>
</svg>
