<svg width="1005" height="268" viewBox="0 0 1005 268" fill="none" xmlns="http://www.w3.org/2000/svg">
<rect width="1005" height="268" fill="white"/>
<circle cx="126" cy="134" r="86" fill="#B2F5EA"/>
<path d="M112.532 117.229V94.6537H98.2825H84.3755V118.101C84.3755 131.289 85.5454 144.451 87.8713 157.432L91.3002 176.568C91.7622 179.147 93.0744 181.502 95.0216 183.254C96.9562 184.994 99.909 184.959 101.796 183.166C103.588 181.463 104.797 179.239 105.252 176.809L108.724 158.262C111.257 144.731 112.532 130.995 112.532 117.229Z" fill="#4FD1C5"/>
<path d="M77.156 97.2098C77.156 95.0006 78.9469 93.2098 81.156 93.2098H116.921C119.13 93.2098 120.921 95.0006 120.921 97.2098V101.483C120.921 103.692 119.13 105.483 116.921 105.483H81.156C78.9469 105.483 77.156 103.692 77.156 101.483V97.2098Z" fill="#2C7A7B"/>
<path d="M166.181 117.229V94.6537H151.931H138.024V118.101C138.024 131.289 139.194 144.451 141.52 157.432L144.949 176.568C145.411 179.147 146.723 181.502 148.671 183.254C150.605 184.994 153.558 184.959 155.444 183.166C157.236 181.463 158.446 179.239 158.901 176.809L162.373 158.262C164.906 144.731 166.181 130.995 166.181 117.229Z" fill="#4FD1C5"/>
<path d="M130.357 97.2098C130.357 95.0006 132.148 93.2098 134.357 93.2098H170.122C172.331 93.2098 174.122 95.0006 174.122 97.2098V101.483C174.122 103.692 172.331 105.483 170.122 105.483H134.357C132.148 105.483 130.357 103.692 130.357 101.483V97.2098Z" fill="#2C7A7B"/>
<path d="M304.999 145.962H287.494V185H265.521V78.3594H305.146C317.743 78.3594 327.46 81.167 334.296 86.7822C341.132 92.3975 344.55 100.332 344.55 110.586C344.55 117.861 342.963 123.94 339.789 128.823C336.664 133.657 331.903 137.515 325.507 140.396L348.578 183.975V185H324.994L304.999 145.962ZM287.494 128.164H305.219C310.736 128.164 315.009 126.772 318.036 123.989C321.063 121.157 322.577 117.275 322.577 112.344C322.577 107.314 321.137 103.359 318.256 100.479C315.424 97.5977 311.054 96.1572 305.146 96.1572H287.494V128.164ZM396.405 186.465C384.784 186.465 375.312 182.9 367.987 175.771C360.712 168.643 357.074 159.146 357.074 147.28V145.229C357.074 137.271 358.612 130.166 361.688 123.916C364.765 117.617 369.11 112.783 374.726 109.414C380.39 105.996 386.835 104.287 394.062 104.287C404.901 104.287 413.422 107.705 419.623 114.541C425.873 121.377 428.998 131.069 428.998 143.618V152.261H378.534C379.218 157.437 381.269 161.587 384.687 164.712C388.153 167.837 392.523 169.399 397.797 169.399C405.951 169.399 412.323 166.445 416.913 160.537L427.313 172.183C424.14 176.675 419.843 180.19 414.423 182.729C409.003 185.22 402.997 186.465 396.405 186.465ZM393.988 121.426C389.789 121.426 386.371 122.842 383.734 125.674C381.146 128.506 379.486 132.559 378.754 137.832H408.197V136.147C408.1 131.46 406.83 127.847 404.389 125.308C401.947 122.72 398.48 121.426 393.988 121.426ZM437.787 144.644C437.787 132.192 440.546 122.354 446.063 115.127C451.63 107.9 459.247 104.287 468.915 104.287C477.411 104.287 484.174 107.534 489.203 114.028L490.595 105.752H509.198V215.469H487.958V178.188C483.075 183.706 476.679 186.465 468.769 186.465C459.345 186.465 451.825 182.803 446.21 175.479C440.595 168.154 437.787 157.876 437.787 144.644ZM458.954 146.182C458.954 153.75 460.272 159.512 462.909 163.467C465.595 167.422 469.354 169.399 474.188 169.399C480.683 169.399 485.272 166.812 487.958 161.636V128.896C485.321 123.916 480.78 121.426 474.335 121.426C469.452 121.426 465.668 123.403 462.982 127.358C460.297 131.313 458.954 137.588 458.954 146.182ZM573.358 176.943C568.134 183.291 560.907 186.465 551.679 186.465C543.183 186.465 536.688 184.023 532.196 179.141C527.753 174.258 525.482 167.104 525.385 157.681V105.752H546.552V156.948C546.552 165.2 550.312 169.326 557.831 169.326C565.009 169.326 569.94 166.836 572.626 161.855V105.752H593.866V185H573.944L573.358 176.943ZM646.308 186.465C634.687 186.465 625.214 182.9 617.89 175.771C610.614 168.643 606.977 159.146 606.977 147.28V145.229C606.977 137.271 608.515 130.166 611.591 123.916C614.667 117.617 619.013 112.783 624.628 109.414C630.292 105.996 636.737 104.287 643.964 104.287C654.804 104.287 663.324 107.705 669.525 114.541C675.775 121.377 678.9 131.069 678.9 143.618V152.261H628.437C629.12 157.437 631.171 161.587 634.589 164.712C638.056 167.837 642.426 169.399 647.699 169.399C655.854 169.399 662.226 166.445 666.815 160.537L677.216 172.183C674.042 176.675 669.745 180.19 664.325 182.729C658.905 185.22 652.899 186.465 646.308 186.465ZM643.891 121.426C639.691 121.426 636.273 122.842 633.637 125.674C631.049 128.506 629.389 132.559 628.656 137.832H658.1V136.147C658.002 131.46 656.732 127.847 654.291 125.308C651.85 122.72 648.383 121.426 643.891 121.426ZM733.905 163.101C733.905 160.513 732.611 158.486 730.023 157.021C727.484 155.508 723.383 154.165 717.719 152.993C698.871 149.038 689.447 141.03 689.447 128.97C689.447 121.938 692.353 116.079 698.163 111.392C704.022 106.655 711.664 104.287 721.088 104.287C731.146 104.287 739.179 106.655 745.185 111.392C751.239 116.128 754.267 122.28 754.267 129.849H733.1C733.1 126.821 732.123 124.331 730.17 122.378C728.217 120.376 725.165 119.375 721.015 119.375C717.45 119.375 714.691 120.181 712.738 121.792C710.785 123.403 709.809 125.454 709.809 127.944C709.809 130.288 710.907 132.192 713.104 133.657C715.351 135.073 719.11 136.318 724.384 137.393C729.657 138.418 734.101 139.59 737.714 140.908C748.896 145.01 754.486 152.114 754.486 162.222C754.486 169.448 751.386 175.308 745.185 179.8C738.983 184.243 730.976 186.465 721.161 186.465C714.521 186.465 708.612 185.293 703.437 182.949C698.31 180.557 694.281 177.31 691.352 173.208C688.422 169.058 686.957 164.59 686.957 159.805H707.025C707.221 163.564 708.612 166.445 711.2 168.447C713.788 170.449 717.255 171.45 721.601 171.45C725.653 171.45 728.705 170.693 730.756 169.18C732.855 167.617 733.905 165.591 733.905 163.101ZM793.524 86.2695V105.752H807.074V121.279H793.524V160.83C793.524 163.76 794.086 165.859 795.209 167.129C796.332 168.398 798.48 169.033 801.654 169.033C803.998 169.033 806.073 168.862 807.88 168.521V184.561C803.729 185.83 799.457 186.465 795.062 186.465C780.219 186.465 772.65 178.97 772.357 163.979V121.279H760.785V105.752H772.357V86.2695H793.524ZM928.437 185H855.341V170.498L889.838 133.73C894.574 128.555 898.065 124.038 900.312 120.181C902.606 116.323 903.754 112.661 903.754 109.194C903.754 104.458 902.558 100.747 900.165 98.0615C897.772 95.3271 894.354 93.96 889.911 93.96C885.126 93.96 881.342 95.6201 878.559 98.9404C875.824 102.212 874.457 106.533 874.457 111.904H853.217C853.217 105.41 854.755 99.4775 857.831 94.1064C860.956 88.7354 865.351 84.5361 871.015 81.5088C876.679 78.4326 883.1 76.8945 890.277 76.8945C901.264 76.8945 909.784 79.5312 915.839 84.8047C921.942 90.0781 924.994 97.5244 924.994 107.144C924.994 112.417 923.627 117.788 920.893 123.257C918.158 128.726 913.471 135.098 906.83 142.373L882.587 167.935H928.437V185Z" fill="black"/>
</svg>
